<?xml version="1.0" encoding="UTF-8" standalone="no"?>
<!DOCTYPE svg PUBLIC "-//W3C//DTD SVG 1.1//EN" "http://www.w3.org/Graphics/SVG/1.1/DTD/svg11.dtd">
<svg width="100%" height="100%" viewBox="0 0 32 32" version="1.1" xmlns="http://www.w3.org/2000/svg" xmlns:xlink="http://www.w3.org/1999/xlink" xml:space="preserve" xmlns:serif="http://www.serif.com/" style="fill-rule:evenodd;clip-rule:evenodd;stroke-linecap:round;stroke-linejoin:round;stroke-miterlimit:1.5;">
    <g transform="matrix(1,0,0,1,-0.591947,3.55271e-15)">
        <circle cx="16.592" cy="16" r="14.539" style="fill:rgb(229,236,244);"/>
        <clipPath id="_clip1">
            <circle cx="16.592" cy="16" r="14.539"/>
        </clipPath>
        <g clip-path="url(#_clip1)">
            <g id="Snake" transform="matrix(0.0349051,0,0,0.0349051,-16.917,-2.84878)">
                <g transform="matrix(1,0,0,1,609.022,0)">
                    <path d="M142.695,1092.88C142.695,1070.77 153.117,1045.42 155.901,1023.15C175.458,866.694 227.291,714.495 229.113,555.97C229.774,498.463 180.947,512.5 153.801,478.115C125.938,442.822 153.249,364.993 171.98,330.861C203.907,272.682 400.122,257.497 460.742,278.148C510.165,294.984 561.405,359.042 560.036,413.136C556.953,534.907 366.183,441.734 318.516,514.584C280.579,572.562 306.441,644.446 295.696,708.916C283.98,779.208 262.89,848.459 246.795,917.835C232.081,981.255 222.4,1045.47 208.945,1109.07" style="fill:rgb(178,205,48);"/>
                    <path d="M157.019,1092.88C157.019,1071.32 167.4,1046.64 170.114,1024.93C189.738,867.938 241.609,715.199 243.437,556.134C243.645,537.999 239.525,525.611 233.333,516.393C227.037,507.018 218.386,500.748 208.434,495.632C194.562,488.501 177.177,484.608 165.044,469.239C155.964,457.738 155.028,440.518 157.008,422.423C160.438,391.077 173.963,357.021 184.538,337.752C188.568,330.407 196.188,324.227 205.886,318.595C223.233,308.524 246.931,300.856 272.984,295.226C339.439,280.867 421.207,279.812 456.123,291.707C478.453,299.314 501.007,317.827 518.011,340.311C534.785,362.491 546.326,388.662 545.716,412.773C544.413,464.223 501.383,467.009 455.721,467.883C422.256,468.524 386.733,467.096 358.346,473.809C336.183,479.05 318.053,489.13 306.529,506.741C285.936,538.214 282.173,573.35 282.585,609.479C282.956,641.914 286.803,675.141 281.566,706.561C269.9,776.559 248.869,845.512 232.841,914.597C218.106,978.109 208.405,1042.41 194.931,1106.11C193.295,1113.84 198.246,1121.45 205.981,1123.09C213.716,1124.72 221.324,1119.77 222.96,1112.04C236.395,1048.53 246.056,984.402 260.749,921.072C276.912,851.405 298.061,781.858 309.825,711.27C315.334,678.22 311.622,643.271 311.233,609.152C310.885,578.726 313.159,548.932 330.503,522.427C340.24,507.545 357.764,502.1 377.895,499.312C402.01,495.972 429.822,497.033 456.269,496.527C476.316,496.143 495.631,494.872 512.352,490.735C531.444,486.013 547.34,477.53 558.343,463.581C567.752,451.651 573.797,435.556 574.355,413.498C575.115,383.515 561.72,350.611 540.861,323.03C520.231,295.751 492.454,273.818 465.361,264.588C421.231,249.555 307.975,252.225 232.621,276.268C197.302,287.537 170.316,304.118 159.422,323.969C147.519,345.659 132.39,384.023 128.529,419.307C125.648,445.638 129.344,470.254 142.558,486.992C155.015,502.771 171.176,510.072 186.368,516.883C195.614,521.028 204.605,524.518 209.91,532.918C213.296,538.279 214.908,545.555 214.79,555.805C212.974,713.791 161.177,865.45 141.687,1021.37C138.834,1044.2 128.37,1070.22 128.37,1092.88C128.37,1100.79 134.789,1107.21 142.695,1107.21C150.601,1107.21 157.019,1100.79 157.019,1092.88Z" style="fill:rgb(34,34,34);"/>
                </g>
                <path d="M885.526,357.73C885.813,357.542 886.719,356.819 887.855,354.816C891.233,349.301 890.534,341.989 885.762,337.217C880.172,331.627 871.094,331.627 865.504,337.217C865.626,337.096 865.779,336.95 865.779,336.95C865.779,336.95 864.437,337.662 862.753,341.03C859.218,348.102 862.088,356.713 869.159,360.249C874.741,363.039 881.282,361.839 885.526,357.73ZM887.657,355.119L887.997,354.551L887.855,354.816C887.609,355.219 887.341,355.611 887.052,355.992C886.589,356.62 886.077,357.2 885.526,357.73L885.435,357.792C885.435,357.792 885.618,357.619 885.762,357.475C886.233,357.005 886.663,356.51 887.052,355.992L887.255,355.719C887.389,355.519 887.523,355.319 887.657,355.119Z" style="fill:rgb(34,34,34);"/>
                <path d="M991.283,338.723L991.283,338.655C991.283,330.749 984.865,324.331 976.959,324.331C969.053,324.331 962.634,330.749 962.634,338.655L962.634,338.723C962.634,346.629 969.053,353.048 976.959,353.048C984.865,353.048 991.283,346.629 991.283,338.723Z" style="fill:rgb(34,34,34);"/>
                <g transform="matrix(1,0,0,1,29.3241,-9.90168)">
                    <path d="M977.206,434.784C951.033,437.711 922.571,435.377 896.659,437.168C884.655,437.998 872.644,438.717 860.665,439.834C860.632,438.615 860.629,437.371 860.637,436.121C860.692,427.848 861.188,419.383 860.727,414.225C860.022,406.35 853.057,400.529 845.183,401.234C837.308,401.938 831.487,408.904 832.192,416.778C832.795,423.513 831.512,436.294 832.292,446.164C832.823,452.881 834.356,458.65 836.574,462.55C837.761,464.638 840.808,469.245 848.109,469.806C849.45,469.909 855.338,469.161 856.069,469.081C870.224,467.542 884.435,466.731 898.635,465.749C929.104,463.643 962.973,466.807 992.906,461.459C995.408,461.012 1002.09,459.4 1004.48,450.597C1005.33,447.452 1006.3,431.529 1006.73,414.292C1006.92,406.389 1000.67,399.813 992.762,399.617C984.858,399.422 978.283,405.68 978.087,413.583C977.912,420.667 977.527,428.789 977.206,434.784Z" style="fill:rgb(34,34,34);"/>
                </g>
            </g>
        </g>
        <circle cx="16.592" cy="16" r="14.539" style="fill:none;stroke:black;stroke-width:1px;"/>
    </g>
</svg>
